<?xml version="1.0" encoding="UTF-8" standalone="no"?>
<!DOCTYPE svg PUBLIC "-//W3C//DTD SVG 1.1//EN" "http://www.w3.org/Graphics/SVG/1.1/DTD/svg11.dtd">
<svg width="100%" height="100%" viewBox="0 0 90 380" version="1.1" xmlns="http://www.w3.org/2000/svg" xmlns:xlink="http://www.w3.org/1999/xlink" xml:space="preserve" xmlns:serif="http://www.serif.com/" style="fill-rule:evenodd;clip-rule:evenodd;">
    <rect id="rect1" x="0" y="0" width="90" height="380" style="fill:rgb(10,10,10);fill-rule:nonzero;"/>
    <rect id="rect2" x="0.75" y="0.75" width="88.5" height="378.5" style="fill:none;fill-rule:nonzero;stroke:rgb(42,126,138);stroke-width:0.5px;"/>
    <path id="text2" d="M14.456,25.522L15.902,25.522L17.308,30.44L18.728,25.522L20.134,25.522L17.923,32L16.645,32L14.456,25.522ZM25.803,32.18C24.877,32.18 24.17,31.928 23.681,31.424C23.024,30.806 22.696,29.916 22.696,28.752C22.696,27.566 23.024,26.675 23.681,26.081C24.17,25.577 24.877,25.325 25.803,25.325C26.729,25.325 27.437,25.577 27.926,26.081C28.579,26.675 28.906,27.566 28.906,28.752C28.906,29.916 28.579,30.806 27.926,31.424C27.437,31.928 26.729,32.18 25.803,32.18ZM27.082,30.44C27.396,30.044 27.552,29.482 27.552,28.752C27.552,28.026 27.394,27.465 27.078,27.069C26.764,26.671 26.339,26.472 25.803,26.472C25.267,26.472 24.839,26.669 24.52,27.065C24.201,27.46 24.041,28.023 24.041,28.752C24.041,29.482 24.201,30.044 24.52,30.44C24.839,30.835 25.267,31.033 25.803,31.033C26.339,31.033 26.766,30.835 27.082,30.44ZM31.833,25.522L33.178,25.522L33.178,32L31.833,32L31.833,25.522ZM39.229,32L36.439,32L36.439,25.522L39.229,25.522C39.631,25.528 39.965,25.575 40.231,25.663C40.686,25.813 41.053,26.086 41.334,26.485C41.56,26.807 41.714,27.156 41.796,27.531C41.878,27.906 41.919,28.263 41.919,28.603C41.919,29.464 41.746,30.194 41.4,30.792C40.932,31.597 40.208,32 39.229,32ZM40.236,27.175C40.028,26.823 39.616,26.647 39.001,26.647L37.753,26.647L37.753,30.875L39.001,30.875C39.64,30.875 40.085,30.56 40.337,29.93C40.475,29.584 40.543,29.173 40.543,28.695C40.543,28.036 40.441,27.529 40.236,27.175ZM49.439,25.522L50.792,25.522L50.792,30.835L54,30.835L54,32L49.439,32L49.439,25.522ZM56.831,25.522L58.176,25.522L58.176,32L56.831,32L56.831,25.522ZM66.675,32L65.322,32L62.676,27.399L62.676,32L61.415,32L61.415,25.522L62.834,25.522L65.414,30.044L65.414,25.522L66.675,25.522L66.675,32ZM75.676,32L73.936,32L71.936,29.17L71.29,29.833L71.29,32L69.958,32L69.958,25.522L71.29,25.522L71.29,28.19L73.791,25.522L75.54,25.522L72.885,28.19L75.676,32Z" style="fill:rgb(204,204,204);fill-rule:nonzero;"/>
    <path id="rect3" d="M7,42L83,42C83.554,42 84,42.446 84,43L84,57C84,57.554 83.554,58 83,58L7,58C6.446,58 6,57.554 6,57L6,43C6,42.446 6.446,42 7,42Z" style="fill:rgb(42,126,138);fill-rule:nonzero;"/>
    <path id="text3" d="M17.868,51.178L16.315,51.178L16.315,54L14.845,54L14.845,46.803L18.375,46.803C18.88,46.813 19.267,46.874 19.538,46.988C19.811,47.102 20.042,47.27 20.231,47.491C20.387,47.674 20.511,47.875 20.602,48.097C20.693,48.318 20.739,48.57 20.739,48.854C20.739,49.195 20.653,49.532 20.48,49.864C20.307,50.193 20.023,50.426 19.625,50.563C19.958,50.696 20.192,50.886 20.329,51.134C20.469,51.378 20.539,51.752 20.539,52.257L20.539,52.74C20.539,53.069 20.552,53.292 20.578,53.409C20.617,53.595 20.708,53.731 20.851,53.819L20.851,54L19.196,54C19.15,53.84 19.118,53.712 19.098,53.614C19.059,53.412 19.038,53.206 19.035,52.994L19.025,52.325C19.018,51.866 18.934,51.56 18.771,51.407C18.611,51.254 18.31,51.178 17.868,51.178L17.868,51.178ZM18.781,49.869C19.08,49.732 19.23,49.462 19.23,49.059C19.23,48.622 19.085,48.329 18.795,48.18C18.633,48.095 18.389,48.053 18.063,48.053L16.315,48.053L16.315,49.986L18.019,49.986C18.358,49.986 18.611,49.947 18.781,49.869ZM30.042,50.855L26.546,50.855L26.546,52.706L30.531,52.706L30.531,54L25.077,54L25.077,46.803L30.355,46.803L30.355,48.077L26.546,48.077L26.546,49.605L30.042,49.605L30.042,50.855ZM39.781,53.463C39.244,53.954 38.557,54.2 37.72,54.2C36.685,54.2 35.871,53.868 35.279,53.204C34.686,52.537 34.39,51.622 34.39,50.46C34.39,49.203 34.727,48.235 35.401,47.555C35.987,46.962 36.732,46.666 37.637,46.666C38.848,46.666 39.734,47.063 40.293,47.857C40.603,48.303 40.769,48.751 40.792,49.2L39.288,49.2C39.19,48.855 39.065,48.595 38.912,48.419C38.638,48.106 38.233,47.95 37.696,47.95C37.149,47.95 36.718,48.172 36.402,48.614C36.086,49.054 35.928,49.677 35.928,50.484C35.928,51.292 36.094,51.897 36.426,52.301C36.762,52.701 37.186,52.901 37.701,52.901C38.228,52.901 38.63,52.729 38.907,52.384C39.06,52.198 39.187,51.92 39.288,51.549L40.777,51.549C40.647,52.333 40.315,52.971 39.781,53.463ZM49.934,50.855L46.438,50.855L46.438,52.706L50.422,52.706L50.422,54L44.968,54L44.968,46.803L50.247,46.803L50.247,48.077L46.438,48.077L46.438,49.605L49.934,49.605L49.934,50.855ZM54.477,46.803L55.971,46.803L55.971,54L54.477,54L54.477,46.803ZM59.84,46.803L61.447,46.803L63.009,52.267L64.586,46.803L66.149,46.803L63.693,54L62.272,54L59.84,46.803ZM75.052,50.855L71.556,50.855L71.556,52.706L75.541,52.706L75.541,54L70.086,54L70.086,46.803L75.365,46.803L75.365,48.077L71.556,48.077L71.556,49.605L75.052,49.605L75.052,50.855Z" style="fill:rgb(10,10,10);fill-rule:nonzero;"/>
    <path id="text4" d="M28.056,117.074C28.065,117.237 28.103,117.369 28.171,117.471C28.3,117.661 28.527,117.756 28.853,117.756C28.998,117.756 29.131,117.735 29.251,117.693C29.483,117.613 29.599,117.468 29.599,117.26C29.599,117.104 29.55,116.992 29.452,116.926C29.353,116.861 29.198,116.804 28.987,116.756L28.599,116.668C28.345,116.611 28.165,116.548 28.06,116.479C27.877,116.359 27.786,116.18 27.786,115.941C27.786,115.684 27.875,115.472 28.054,115.307C28.232,115.141 28.485,115.059 28.812,115.059C29.112,115.059 29.368,115.131 29.577,115.277C29.788,115.422 29.894,115.654 29.894,115.973L29.528,115.973C29.509,115.819 29.467,115.701 29.403,115.619C29.285,115.469 29.084,115.395 28.8,115.395C28.571,115.395 28.406,115.443 28.306,115.539C28.205,115.635 28.155,115.747 28.155,115.875C28.155,116.016 28.214,116.118 28.331,116.184C28.408,116.225 28.582,116.277 28.853,116.34L29.255,116.432C29.449,116.476 29.599,116.536 29.704,116.613C29.886,116.747 29.978,116.942 29.978,117.197C29.978,117.515 29.862,117.742 29.63,117.879C29.399,118.016 29.131,118.084 28.825,118.084C28.468,118.084 28.189,117.993 27.987,117.811C27.785,117.63 27.687,117.384 27.69,117.074L28.056,117.074ZM31.892,115.131L31.892,116.904C31.892,117.113 31.931,117.286 32.009,117.424C32.125,117.632 32.32,117.736 32.595,117.736C32.924,117.736 33.148,117.624 33.267,117.398C33.33,117.276 33.362,117.111 33.362,116.904L33.362,115.131L33.757,115.131L33.757,116.742C33.757,117.095 33.709,117.367 33.614,117.557C33.44,117.903 33.11,118.076 32.626,118.076C32.142,118.076 31.813,117.903 31.64,117.557C31.545,117.367 31.497,117.095 31.497,116.742L31.497,115.131L31.892,115.131ZM36.437,116.344C36.601,116.344 36.728,116.321 36.819,116.275C36.963,116.204 37.034,116.075 37.034,115.889C37.034,115.701 36.958,115.575 36.806,115.51C36.72,115.473 36.592,115.455 36.423,115.455L35.729,115.455L35.729,116.344L36.437,116.344ZM36.567,117.668C36.806,117.668 36.976,117.599 37.077,117.461C37.141,117.374 37.173,117.268 37.173,117.144C37.173,116.936 37.08,116.794 36.894,116.719C36.795,116.678 36.664,116.658 36.501,116.658L35.729,116.658L35.729,117.668L36.567,117.668ZM35.349,115.131L36.581,115.131C36.917,115.131 37.156,115.231 37.298,115.432C37.381,115.55 37.423,115.687 37.423,115.842C37.423,116.023 37.371,116.171 37.269,116.287C37.215,116.348 37.138,116.404 37.038,116.455C37.185,116.511 37.295,116.574 37.368,116.645C37.497,116.77 37.562,116.942 37.562,117.162C37.562,117.347 37.504,117.514 37.388,117.664C37.215,117.888 36.939,118 36.562,118L35.349,118L35.349,115.131ZM39.28,117.074C39.289,117.237 39.328,117.369 39.396,117.471C39.524,117.661 39.752,117.756 40.077,117.756C40.223,117.756 40.356,117.735 40.476,117.693C40.707,117.613 40.823,117.468 40.823,117.26C40.823,117.103 40.774,116.992 40.677,116.926C40.578,116.861 40.423,116.804 40.212,116.756L39.823,116.668C39.569,116.611 39.39,116.548 39.284,116.478C39.102,116.359 39.011,116.18 39.011,115.941C39.011,115.684 39.1,115.472 39.278,115.307C39.457,115.141 39.709,115.059 40.036,115.059C40.337,115.059 40.592,115.131 40.802,115.277C41.013,115.422 41.118,115.654 41.118,115.973L40.753,115.973C40.733,115.819 40.692,115.701 40.628,115.619C40.509,115.469 40.308,115.394 40.024,115.394C39.795,115.394 39.631,115.443 39.53,115.539C39.43,115.635 39.38,115.747 39.38,115.875C39.38,116.016 39.438,116.118 39.556,116.184C39.632,116.225 39.806,116.277 40.077,116.34L40.479,116.432C40.674,116.476 40.823,116.536 40.929,116.613C41.111,116.747 41.202,116.942 41.202,117.197C41.202,117.515 41.086,117.742 40.854,117.879C40.624,118.016 40.356,118.084 40.05,118.084C39.693,118.084 39.414,117.993 39.212,117.811C39.01,117.63 38.911,117.384 38.915,117.074L39.28,117.074ZM43.903,115.053C44.267,115.053 44.549,115.148 44.749,115.34C44.95,115.531 45.061,115.749 45.083,115.992L44.704,115.992C44.661,115.807 44.575,115.661 44.446,115.553C44.319,115.445 44.139,115.391 43.907,115.391C43.625,115.391 43.396,115.49 43.222,115.689C43.049,115.887 42.962,116.191 42.962,116.602C42.962,116.937 43.04,117.21 43.196,117.42C43.354,117.628 43.588,117.732 43.899,117.732C44.186,117.732 44.404,117.622 44.554,117.402C44.633,117.286 44.692,117.134 44.731,116.945L45.11,116.945C45.076,117.247 44.965,117.501 44.774,117.705C44.547,117.951 44.239,118.074 43.853,118.074C43.519,118.074 43.239,117.973 43.013,117.771C42.715,117.505 42.565,117.092 42.565,116.535C42.565,116.112 42.677,115.765 42.901,115.494C43.144,115.2 43.478,115.053 43.903,115.053ZM47.917,116.445C48.099,116.445 48.243,116.409 48.349,116.336C48.455,116.263 48.509,116.131 48.509,115.941C48.509,115.737 48.435,115.598 48.286,115.523C48.207,115.484 48.101,115.465 47.968,115.465L47.019,115.465L47.019,116.445L47.917,116.445ZM46.63,115.131L47.958,115.131C48.177,115.131 48.357,115.163 48.499,115.227C48.769,115.349 48.903,115.575 48.903,115.904C48.903,116.076 48.868,116.217 48.796,116.326C48.726,116.436 48.627,116.523 48.499,116.59C48.611,116.635 48.695,116.695 48.751,116.769C48.808,116.844 48.84,116.964 48.847,117.131L48.86,117.516C48.864,117.625 48.873,117.706 48.888,117.76C48.911,117.851 48.953,117.909 49.013,117.936L49.013,118L48.536,118C48.523,117.975 48.513,117.943 48.505,117.904C48.497,117.865 48.491,117.79 48.485,117.678L48.462,117.199C48.453,117.012 48.383,116.886 48.253,116.822C48.179,116.787 48.062,116.77 47.903,116.77L47.019,116.77L47.019,118L46.63,118L46.63,115.131ZM50.56,115.131L50.952,115.131L50.952,118L50.56,118L50.56,115.131ZM53.661,116.344C53.825,116.344 53.953,116.321 54.044,116.275C54.187,116.204 54.259,116.075 54.259,115.889C54.259,115.701 54.183,115.575 54.03,115.51C53.944,115.473 53.817,115.455 53.647,115.455L52.954,115.455L52.954,116.344L53.661,116.344ZM53.792,117.668C54.03,117.668 54.2,117.599 54.302,117.461C54.366,117.374 54.397,117.268 54.397,117.144C54.397,116.936 54.304,116.794 54.118,116.719C54.019,116.678 53.888,116.658 53.726,116.658L52.954,116.658L52.954,117.668L53.792,117.668ZM52.573,115.131L53.806,115.131C54.142,115.131 54.381,115.231 54.522,115.432C54.606,115.55 54.647,115.687 54.647,115.842C54.647,116.023 54.596,116.171 54.493,116.287C54.44,116.348 54.363,116.404 54.263,116.455C54.41,116.511 54.52,116.574 54.593,116.645C54.722,116.77 54.786,116.942 54.786,117.162C54.786,117.347 54.728,117.514 54.612,117.664C54.439,117.888 54.164,118 53.786,118L52.573,118L52.573,115.131ZM56.288,115.131L58.38,115.131L58.38,115.482L56.667,115.482L56.667,116.353L58.251,116.353L58.251,116.686L56.667,116.686L56.667,117.658L58.409,117.658L58.409,118L56.288,118L56.288,115.131ZM61.021,117.668C61.152,117.668 61.26,117.654 61.345,117.627C61.496,117.576 61.619,117.478 61.716,117.334C61.793,117.218 61.848,117.07 61.882,116.889C61.901,116.781 61.911,116.68 61.911,116.588C61.911,116.232 61.84,115.956 61.698,115.76C61.558,115.563 61.33,115.465 61.017,115.465L60.327,115.465L60.327,117.668L61.021,117.668ZM59.937,115.131L61.099,115.131C61.493,115.131 61.799,115.271 62.017,115.551C62.211,115.803 62.308,116.127 62.308,116.521C62.308,116.826 62.25,117.102 62.136,117.348C61.934,117.783 61.587,118 61.095,118L59.937,118L59.937,115.131Z" style="fill:rgb(102,102,102);fill-rule:nonzero;"/>
    <path id="line4" d="M8,225L82,225" style="fill:none;fill-rule:nonzero;stroke:rgb(34,34,34);stroke-width:0.5px;"/>
    <path id="text5" d="M26.045,237.039L24.241,237.039L24.241,237.866L25.821,237.866L25.821,238.491L24.241,238.491L24.241,240L23.494,240L23.494,236.406L26.045,236.406L26.045,237.039ZM30.077,238.589L29.3,238.589L29.3,240L28.565,240L28.565,236.401L30.331,236.401C30.583,236.406 30.777,236.437 30.912,236.494C31.048,236.551 31.164,236.635 31.258,236.746C31.336,236.837 31.398,236.938 31.444,237.048C31.489,237.159 31.512,237.285 31.512,237.427C31.512,237.598 31.469,237.766 31.383,237.932C31.297,238.097 31.154,238.213 30.956,238.281C31.122,238.348 31.239,238.443 31.307,238.567C31.377,238.689 31.412,238.876 31.412,239.128L31.412,239.37C31.412,239.535 31.419,239.646 31.432,239.705C31.451,239.797 31.497,239.866 31.568,239.91L31.568,240L30.741,240C30.718,239.92 30.702,239.856 30.692,239.807C30.672,239.706 30.662,239.603 30.66,239.497L30.655,239.163C30.652,238.933 30.61,238.78 30.528,238.704C30.449,238.627 30.298,238.589 30.077,238.589L30.077,238.589ZM30.533,237.935C30.683,237.866 30.758,237.731 30.758,237.529C30.758,237.311 30.685,237.165 30.541,237.09C30.459,237.048 30.337,237.026 30.174,237.026L29.3,237.026L29.3,237.993L30.152,237.993C30.322,237.993 30.449,237.974 30.533,237.935L30.533,237.935ZM35.751,240.1C35.237,240.1 34.844,239.96 34.572,239.68C34.207,239.337 34.025,238.842 34.025,238.196C34.025,237.537 34.207,237.042 34.572,236.711C34.844,236.431 35.237,236.291 35.751,236.291C36.265,236.291 36.658,236.431 36.93,236.711C37.293,237.042 37.475,237.537 37.475,238.196C37.475,238.842 37.293,239.337 36.93,239.68C36.658,239.96 36.265,240.1 35.751,240.1ZM36.461,239.133C36.636,238.914 36.723,238.601 36.723,238.196C36.723,237.792 36.635,237.48 36.459,237.261C36.285,237.039 36.049,236.929 35.751,236.929C35.453,236.929 35.215,237.039 35.038,237.258C34.861,237.478 34.772,237.791 34.772,238.196C34.772,238.601 34.861,238.914 35.038,239.133C35.215,239.353 35.453,239.463 35.751,239.463C36.049,239.463 36.286,239.353 36.461,239.133ZM40.737,240L40.036,240L40.036,236.401L41.13,236.401L41.784,239.231L42.434,236.401L43.515,236.401L43.515,240L42.814,240L42.814,237.566C42.814,237.496 42.815,237.398 42.817,237.273C42.818,237.146 42.819,237.048 42.819,236.98L42.138,240L41.408,240L40.732,236.98C40.732,237.048 40.733,237.146 40.734,237.273C40.736,237.398 40.737,237.496 40.737,237.566L40.737,240ZM49.603,236.401L50.354,236.401L50.354,239.353L52.137,239.353L52.137,240L49.603,240L49.603,236.401ZM54.598,236.401L55.345,236.401L55.345,240L54.598,240L54.598,236.401ZM60.956,240L60.204,240L58.734,237.444L58.734,240L58.034,240L58.034,236.401L58.822,236.401L60.255,238.914L60.255,236.401L60.956,236.401L60.956,240ZM66.845,240L65.878,240L64.768,238.428L64.409,238.796L64.409,240L63.669,240L63.669,236.401L64.409,236.401L64.409,237.883L65.798,236.401L66.77,236.401L65.295,237.883L66.845,240Z" style="fill:rgb(136,136,136);fill-rule:nonzero;"/>
    <path id="text6" d="M26.192,305.131L26.581,305.131L26.581,307.658L28.034,307.658L28.034,308L26.192,308L26.192,305.131Z" style="fill:rgb(102,102,102);fill-rule:nonzero;"/>
    <path id="text7" d="M63.194,306.445C63.377,306.445 63.521,306.409 63.626,306.336C63.733,306.263 63.786,306.132 63.786,305.941C63.786,305.737 63.712,305.598 63.563,305.523C63.484,305.484 63.378,305.465 63.245,305.465L62.296,305.465L62.296,306.445L63.194,306.445ZM61.907,305.131L63.235,305.131C63.454,305.131 63.634,305.163 63.776,305.227C64.046,305.349 64.181,305.575 64.181,305.904C64.181,306.076 64.145,306.217 64.073,306.326C64.003,306.436 63.904,306.523 63.776,306.59C63.888,306.635 63.972,306.695 64.028,306.77C64.086,306.844 64.118,306.964 64.124,307.131L64.138,307.516C64.142,307.625 64.151,307.706 64.165,307.76C64.188,307.851 64.23,307.91 64.29,307.936L64.29,308L63.813,308C63.8,307.975 63.79,307.943 63.782,307.904C63.774,307.865 63.768,307.79 63.763,307.678L63.739,307.199C63.73,307.012 63.66,306.886 63.53,306.822C63.456,306.787 63.34,306.77 63.181,306.77L62.296,306.77L62.296,308L61.907,308L61.907,305.131Z" style="fill:rgb(102,102,102);fill-rule:nonzero;"/>
    <g id="g18" transform="matrix(0.085,0,0,0.085,18,320)">
        <g id="path7" transform="matrix(1,0,0,1,-64.3347,0)">
            <path d="M545.78,64.56L545.78,83.23L545.6,83.46C540.92,89.28 535.84,92.24 530.49,92.24C523.6,92.24 519.96,88.24 519.96,80.65L519.96,53.79L513.59,53.79L513.59,81.53C513.437,85.822 514.861,90.024 517.59,93.34C520.27,96.47 523.85,97.99 528.52,97.99C534.3,97.99 539.52,95.44 544.13,90.41L544.38,90.14L545.75,90.14L545.75,92.22L546.59,97.11L552.12,97.11L552.12,64.56L545.78,64.56Z" style="fill:white;fill-rule:nonzero;"/>
        </g>
        <g id="path8" transform="matrix(1,0,0,1,-64.3347,0)">
            <path d="M692.58,92.12C687.58,92 683.68,90.79 681.09,88.5C678.251,85.854 676.514,82.231 676.23,78.36L676.13,77.44C676.005,75.373 676.045,73.3 676.25,71.24C676.58,67.02 678.08,63.74 680.74,61.5C683.3,59.251 686.592,58.006 690,58C693.413,58.004 696.714,59.232 699.3,61.46C702.09,63.78 703.63,67.21 703.87,71.66L703.92,72.53L692.23,72.53L692.23,77.4L710.23,77.4L710.23,75.4C710.396,69.606 708.559,63.928 705.03,59.33C701.62,55.03 696.56,52.85 689.98,52.85C683.4,52.85 678.33,55.03 674.98,59.33C671.63,63.63 669.78,69.33 669.78,76.06C669.78,82.79 671.78,88.15 675.58,92.06C679.38,95.97 684.62,98 691,98L692.55,98L692.58,92.12Z" style="fill:white;fill-rule:nonzero;"/>
        </g>
        <g id="path9" transform="matrix(1,0,0,1,-64.3347,0)">
            <path d="M305,53.79L305,83.23L304.82,83.46C300.15,89.28 295.06,92.24 289.71,92.24C282.82,92.24 279.18,88.24 279.18,80.65L279.18,67.9L272.81,67.9L272.81,81.53C272.657,85.822 274.081,90.024 276.81,93.34C279.5,96.47 283.07,97.99 287.74,97.99C293.53,97.99 298.74,95.44 303.36,90.41L303.6,90.14L305,90.14L305,92.22L305.84,97.11L311.37,97.11L311.37,53.79L305,53.79Z" style="fill:white;fill-rule:nonzero;"/>
        </g>
        <g id="path10" transform="matrix(1,0,0,1,-64.3347,0)">
            <path d="M456.62,91.82C454.94,91.09 454.09,89.29 454.09,86.47L454.09,59L459.71,59L459.71,53.79L454.09,53.79L454.09,45.22L440,59L447.72,59L447.72,87.18C447.72,94.46 451.72,97.99 459.77,97.99C462.236,98.002 464.672,97.448 466.89,96.37L466.89,91.37C465.116,92.149 463.207,92.573 461.27,92.62C459.683,92.662 458.102,92.39 456.62,91.82Z" style="fill:white;fill-rule:nonzero;"/>
        </g>
        <g id="path11" transform="matrix(1,0,0,1,-64.3347,0)">
            <path d="M388.82,91.43C386.856,91.907 384.841,92.148 382.82,92.15C377.53,92.15 373.31,90.6 370.28,87.54C367.25,84.48 365.72,80.41 365.72,75.45C365.72,70.49 367.26,66.45 370.28,63.36C373.3,60.27 377.53,58.75 382.82,58.75C384.841,58.752 386.856,58.993 388.82,59.47L388.82,53.76C386.614,53.195 384.347,52.906 382.07,52.9C376.128,52.78 370.366,54.968 366,59C361.62,63.05 359.39,68.57 359.39,75.41C359.39,82.25 361.62,87.77 366,91.82C370.353,95.881 376.117,98.098 382.07,98C384.347,97.997 386.614,97.712 388.82,97.15L388.82,91.43Z" style="fill:white;fill-rule:nonzero;"/>
        </g>
        <g id="path12" transform="matrix(1,0,0,1,-64.3347,0)">
            <path d="M148.6,92.4C147.87,92.29 147.155,92.095 146.47,91.82C144.79,91.09 143.94,89.29 143.94,86.47L143.94,59L148.6,59L148.6,53.79L143.94,53.79L143.94,45.22L129.84,59L137.56,59L137.56,87.18C137.56,94.18 141.18,97.67 148.56,97.96L148.6,92.4Z" style="fill:white;fill-rule:nonzero;"/>
        </g>
        <g id="path13" transform="matrix(1,0,0,1,-64.3347,0)">
            <path d="M619.24,54.3C615.996,55.582 613.152,57.705 611,60.45L610.75,60.75L609.35,60.75L609.35,58.68L608.51,53.79L603,53.79L603,97.11L609.37,97.11L609.37,67.16L609.52,66.95C611.406,64.337 613.963,62.281 616.92,61C617.677,60.66 618.452,60.36 619.24,60.1L619.24,54.3Z" style="fill:white;fill-rule:nonzero;"/>
        </g>
        <g id="path14" transform="matrix(1,0,0,1,-64.3347,0)">
            <path d="M211.81,60.45L211.56,60.75L210.16,60.75L210.16,58.68L209.32,53.79L203.79,53.79L203.79,92.38L210.16,92.38L210.16,67.16L210.32,66.95C212.199,64.334 214.753,62.277 217.71,61C220.83,59.604 224.212,58.888 227.63,58.9L227.63,52.9C221.466,52.781 215.594,55.583 211.81,60.45Z" style="fill:white;fill-rule:nonzero;"/>
        </g>
        <g id="path15" transform="matrix(1,0,0,1,-64.3347,0)">
            <path d="M84.76,78.16C83.143,76.275 80.985,74.931 78.58,74.31L70.76,72.31C68.412,71.722 66.128,70.904 63.94,69.87C61.78,68.87 60.69,67.27 60.69,65.27C60.747,63.208 61.931,61.336 63.77,60.4C65.71,59.2 68.58,58.62 72.54,58.62C74.538,58.63 76.529,58.851 78.48,59.28L78.48,53.67C75.824,53.157 73.125,52.899 70.42,52.9C65.53,52.9 61.64,54.14 58.84,56.58C56.085,58.916 54.547,62.39 54.67,66C54.562,68.522 55.466,70.986 57.18,72.84C58.872,74.656 61.048,75.954 63.45,76.58L71.22,78.66C73.518,79.24 75.76,80.023 77.92,81C80.05,82 81.12,83.37 81.12,85.07C81.12,88.82 78.87,91.07 74.43,91.88L74.43,97.72C77.567,97.474 80.569,96.336 83.08,94.44C85.708,92.443 87.247,89.32 87.23,86.02C87.23,82.71 86.4,80.06 84.76,78.16Z" style="fill:white;fill-rule:nonzero;"/>
        </g>
        <g id="polygon15" transform="matrix(1,0,0,1,-64.3347,0)">
            <path d="M481.4,223.41L481.4,323.19L505.32,323.19L505.32,217.96L481.4,223.41Z" style="fill:white;fill-rule:nonzero;"/>
        </g>
        <g id="polygon16" transform="matrix(1,0,0,1,-64.3347,0)">
            <path d="M481.4,151.43L481.4,182.33L505.32,176.87L505.32,151.43L481.4,151.43Z" style="fill:white;fill-rule:nonzero;"/>
        </g>
        <g id="path16" transform="matrix(1,0,0,1,-64.3347,0)">
            <path d="M403,241.31C402.32,262.06 396,277.99 384.26,288.68C359.79,311.152 321.73,311.152 297.26,288.68C291.222,283.116 286.559,276.224 283.64,268.55L260.46,273.84C264.291,284.427 270.297,294.095 278.09,302.22C293.68,318.48 314.7,326.72 340.59,326.72C366.48,326.72 387.59,318.48 403.27,302.21C418.95,285.94 427,264.07 427,237.31L427,235.83L403,241.31Z" style="fill:white;fill-rule:nonzero;"/>
        </g>
        <g id="path17" transform="matrix(1,0,0,1,-64.3347,0)">
            <path d="M340.58,147.9C314.69,147.9 293.66,156.14 278.08,172.4C263.08,188.04 255.17,208.79 254.56,234.1L278.8,228.57C280.28,210.29 286.47,196.02 297.23,186.13C321.61,163.446 359.85,163.446 384.23,186.13C389.053,190.595 392.997,195.924 395.86,201.84L419.26,196.5C415.415,187.563 409.977,179.4 403.21,172.41C387.56,156.15 366.47,147.9 340.58,147.9Z" style="fill:white;fill-rule:nonzero;"/>
        </g>
        <g id="polygon17" transform="matrix(1,0,0,1,-64.3347,0)">
            <path d="M183.8,250.13L225.21,151.43L199.23,151.43L158.17,255.91L183.8,250.13Z" style="fill:white;fill-rule:nonzero;"/>
        </g>
        <g id="polygon18" transform="matrix(1,0,0,1,-64.3347,0)">
            <path d="M124.76,263.45L80.73,151.43L54.76,151.43L103.75,268.19L124.76,263.45Z" style="fill:white;fill-rule:nonzero;"/>
        </g>
        <g id="path18" transform="matrix(1,0,0,1,-64.3347,0)">
            <path d="M687.28,176.94L660.6,182.94C664.16,185.164 667.475,187.759 670.49,190.68C682.74,202.54 689,218.22 689,237.29C689,256.36 683,272.07 670.79,284C658.58,295.93 642.39,302 622.45,302L585.39,302.12L585.06,200L563.61,204.84L564.01,323.74L623.46,323.54C634.238,323.597 644.953,321.892 655.18,318.49C672.435,312.665 687.103,300.95 696.6,285.41C705.721,270.998 710.47,254.245 710.27,237.19C710.39,215.73 702.76,194.931 688.79,178.64C688.31,178.07 687.78,177.51 687.28,176.94Z" style="fill:white;fill-rule:nonzero;"/>
        </g>
    </g>
</svg>
