<?xml version="1.0" encoding="UTF-8"?>
<svg xmlns="http://www.w3.org/2000/svg" version="1.1"
     viewBox="0 0 90 380" width="90px" height="380px">

  <!-- Background -->
  <rect x="0" y="0" width="90" height="380" fill="#0a0a0a"/>

  <!-- Outer accent border (Sender = orange) -->
  <rect x="0.75" y="0.75" width="88.5" height="378.5"
        fill="none" stroke="#e07a3a" stroke-width="0.5"/>

  <!-- ── Title block (top) ────────────────────────────────────────────── -->
  <text x="45" y="32"
        font-family="Helvetica, Arial, sans-serif"
        font-size="9" font-weight="bold"
        fill="#cccccc" text-anchor="middle"
        letter-spacing="2">VOID LINK</text>

  <!-- Module name banner -->
  <rect x="6" y="42" width="78" height="16" fill="#e07a3a" rx="1"/>
  <text x="45" y="54"
        font-family="Helvetica, Arial, sans-serif"
        font-size="10" font-weight="bold"
        fill="#0a0a0a" text-anchor="middle"
        letter-spacing="3">SEND</text>

  <!-- ── Status zone (LEDs at y=90, peer count text at y=140-156) ────── -->
  <text x="45" y="118"
        font-family="Helvetica, Arial, sans-serif"
        font-size="4" fill="#666"
        text-anchor="middle" letter-spacing="1">PUBLISHING</text>

  <!-- ── AUDIO IN section ────────────────────────────────────────────── -->
  <line x1="8" y1="225" x2="82" y2="225" stroke="#222" stroke-width="0.5"/>
  <text x="45" y="240"
        font-family="Helvetica, Arial, sans-serif"
        font-size="5" font-weight="bold"
        fill="#888" text-anchor="middle"
        letter-spacing="2">TO LINK</text>

  <text x="27" y="308"
        font-family="Helvetica, Arial, sans-serif"
        font-size="4" fill="#666"
        text-anchor="middle">L</text>
  <text x="63" y="308"
        font-family="Helvetica, Arial, sans-serif"
        font-size="4" fill="#666"
        text-anchor="middle">R</text>

  <!-- ── Structure Void logo at the bottom ───────────────────────────── -->
  <g transform="translate(20, 350) scale(0.0653)">
    <path fill="#aaaaaa" d="M545.78,64.56V83.23l-.18.23c-4.68,5.82-9.76,8.78-15.11,8.78-6.89,0-10.53-4-10.53-11.59V53.79h-6.37V81.53a17.6,17.6,0,0,0,4,11.81c2.68,3.13,6.26,4.65,10.93,4.65,5.78,0,11-2.55,15.61-7.58l.25-.27h1.37v2.08l.84,4.89h5.53V64.56Z"/>
    <path fill="#aaaaaa" d="M692.58,92.12c-5-.12-8.9-1.33-11.49-3.62a15.4,15.4,0,0,1-4.86-10.14l-.1-.92h0a38.84,38.84,0,0,1,.12-6.2h0c.33-4.22,1.83-7.5,4.49-9.74A14.07,14.07,0,0,1,690,58a14.27,14.27,0,0,1,9.3,3.46c2.79,2.32,4.33,5.75,4.57,10.2l.05.87H692.23v4.87h18v-2a25.21,25.21,0,0,0-5.2-16.07c-3.41-4.3-8.47-6.48-15.05-6.48s-11.65,2.18-15,6.48-5.2,10-5.2,16.73,2,12.09,5.8,16S684.62,98,691,98c.52,0,1,0,1.55,0Z"/>
    <path fill="#aaaaaa" d="M305,53.79V83.23l-.18.23c-4.67,5.82-9.76,8.78-15.11,8.78-6.89,0-10.53-4-10.53-11.59V67.9h-6.37V81.53a17.6,17.6,0,0,0,4,11.81c2.69,3.13,6.26,4.65,10.93,4.65,5.79,0,11-2.55,15.62-7.58l.24-.27H305v2.08l.84,4.89h5.53V53.79Z"/>
    <path fill="#aaaaaa" d="M456.62,91.82c-1.68-.73-2.53-2.53-2.53-5.35V59h5.62V53.79h-5.62V45.22L440,59h7.72V87.18c0,7.28,4,10.81,12.05,10.81a16.11,16.11,0,0,0,7.12-1.62v-5a14.87,14.87,0,0,1-5.62,1.25A12.08,12.08,0,0,1,456.62,91.82Z"/>
    <path fill="#aaaaaa" d="M388.82,91.43a25.52,25.52,0,0,1-6,.72c-5.29,0-9.51-1.55-12.54-4.61s-4.56-7.13-4.56-12.09,1.54-9,4.56-12.09,7.25-4.61,12.54-4.61a25.52,25.52,0,0,1,6,.72V53.76a27.51,27.51,0,0,0-6.75-.86A23,23,0,0,0,366,59c-4.38,4.05-6.61,9.57-6.61,16.41s2.23,12.36,6.61,16.41A23,23,0,0,0,382.07,98a27.5,27.5,0,0,0,6.75-.85Z"/>
    <path fill="#aaaaaa" d="M148.6,92.4a9.56,9.56,0,0,1-2.13-.58c-1.68-.73-2.53-2.53-2.53-5.35V59h4.66V53.79h-4.66V45.22L129.84,59h7.72V87.18c0,7,3.62,10.49,11,10.78Z"/>
    <path fill="#aaaaaa" d="M619.24,54.3A19.64,19.64,0,0,0,611,60.45l-.25.3h-1.4V58.68l-.84-4.89H603V97.11h6.37V67.16l.15-.21A17.91,17.91,0,0,1,616.92,61a24.18,24.18,0,0,1,2.32-.9Z"/>
    <path fill="#aaaaaa" d="M211.81,60.45l-.25.3h-1.4V58.68l-.84-4.89h-5.53V92.38h6.37V67.16l.16-.21A17.78,17.78,0,0,1,217.71,61a24.07,24.07,0,0,1,9.92-2.1v-6A19.56,19.56,0,0,0,211.81,60.45Z"/>
    <path fill="#aaaaaa" d="M84.76,78.16a12.14,12.14,0,0,0-6.18-3.85l-7.82-2a37,37,0,0,1-6.82-2.44c-2.16-1-3.25-2.6-3.25-4.6a5.64,5.64,0,0,1,3.08-4.87c1.94-1.2,4.81-1.78,8.77-1.78a28.37,28.37,0,0,1,5.94.66V53.67a42.45,42.45,0,0,0-8.06-.77c-4.89,0-8.78,1.24-11.58,3.68A11.82,11.82,0,0,0,54.67,66a9.48,9.48,0,0,0,2.51,6.84,13.08,13.08,0,0,0,6.27,3.74l7.77,2.08A40,40,0,0,1,77.92,81c2.13,1,3.2,2.37,3.2,4.07,0,3.75-2.25,6-6.69,6.81v5.84a16.49,16.49,0,0,0,8.65-3.28,10.51,10.51,0,0,0,4.15-8.42C87.23,82.71,86.4,80.06,84.76,78.16Z"/>
    <polygon fill="#aaaaaa" points="481.4 223.41 481.4 323.19 505.32 323.19 505.32 217.96 481.4 223.41"/>
    <polygon fill="#aaaaaa" points="481.4 151.43 481.4 182.33 505.32 176.87 505.32 151.43 481.4 151.43"/>
    <path fill="#aaaaaa" d="M403,241.31c-.68,20.75-7,36.68-18.74,47.37a64.31,64.31,0,0,1-87,0,53,53,0,0,1-13.62-20.13l-23.18,5.29a80.64,80.64,0,0,0,17.63,28.38c15.59,16.26,36.61,24.5,62.5,24.5s47-8.24,62.68-24.51S427,264.07,427,237.31c0-.48,0-1,0-1.48Z"/>
    <path fill="#aaaaaa" d="M340.58,147.9c-25.89,0-46.92,8.24-62.5,24.5-15,15.64-22.91,36.39-23.52,61.7l24.24-5.53c1.48-18.28,7.67-32.55,18.43-42.44a63.86,63.86,0,0,1,87,0,52.68,52.68,0,0,1,11.63,15.71l23.4-5.34a80.21,80.21,0,0,0-16.05-24.09C387.56,156.15,366.47,147.9,340.58,147.9Z"/>
    <polygon fill="#aaaaaa" points="183.8 250.13 225.21 151.43 199.23 151.43 158.17 255.91 183.8 250.13"/>
    <polygon fill="#aaaaaa" points="124.76 263.45 80.73 151.43 54.76 151.43 103.75 268.19 124.76 263.45"/>
    <path fill="#aaaaaa" d="M687.28,176.94l-26.68,6a59.59,59.59,0,0,1,9.89,7.74C682.74,202.54,689,218.22,689,237.29S683,272.07,670.79,284s-28.4,18-48.34,18l-37.06.12L585.06,200l-21.45,4.84.4,118.9,59.45-.2a98.84,98.84,0,0,0,31.72-5.05,77.65,77.65,0,0,0,41.42-33.08,88.23,88.23,0,0,0,13.67-48.22,89.18,89.18,0,0,0-21.48-58.55C688.31,178.07,687.78,177.51,687.28,176.94Z"/>
  </g>

</svg>
